<?xml version="1.0" encoding="UTF-8" standalone="no"?>
<!-- Generated by Pixelmator Pro 3.8 -->

<svg
   width="2500"
   height="2180"
   viewBox="0 0 2500 2180"
   version="1.1"
   id="svg1"
   sodipodi:docname="logo.svg"
   inkscape:version="1.4 (e7c3feb100, 2024-10-09)"
   xmlns:inkscape="http://www.inkscape.org/namespaces/inkscape"
   xmlns:sodipodi="http://sodipodi.sourceforge.net/DTD/sodipodi-0.dtd"
   xmlns="http://www.w3.org/2000/svg"
   xmlns:svg="http://www.w3.org/2000/svg">
  <defs
     id="defs1" />
  <sodipodi:namedview
     id="namedview1"
     pagecolor="#ffffff"
     bordercolor="#000000"
     borderopacity="0.25"
     inkscape:showpageshadow="2"
     inkscape:pageopacity="0.0"
     inkscape:pagecheckerboard="0"
     inkscape:deskcolor="#d1d1d1"
     inkscape:zoom="0.17774978"
     inkscape:cx="1102.6737"
     inkscape:cy="1361.4644"
     inkscape:window-width="1300"
     inkscape:window-height="776"
     inkscape:window-x="0"
     inkscape:window-y="0"
     inkscape:window-maximized="0"
     inkscape:current-layer="layer1" />
  <g
     inkscape:groupmode="layer"
     id="layer1"
     inkscape:label="Layer 1"
     transform="translate(-55.669372,-38.074192)">
    <path
       id="Figura"
       fill="#e2d7b9"
       fill-rule="evenodd"
       stroke="none"
       d="m 863.47426,1574.5704 c 11.82652,0 16.32853,-0.6673 17.63438,-1.4829 1.44554,-0.9026 3.84379,-1.099 6.13052,-0.5018 2.06582,0.5396 7.27764,1.2512 11.58169,1.5817 4.30412,0.3303 14.32447,-0.012 22.26738,-0.7479 7.94298,-0.7416 21.31235,-3.0768 29.70982,-5.1893 8.3974,-2.1124 21.30114,-5.949 28.67487,-8.5253 7.37381,-2.5762 21.35258,-8.0983 31.06368,-12.2712 9.7114,-4.1729 24.6465,-10.8886 33.1889,-14.9234 8.5426,-4.0351 22.1057,-10.2 30.14,-13.6996 8.0347,-3.4998 20.4026,-8.38 27.4844,-10.845 7.0819,-2.465 19.0306,-5.6697 26.5523,-7.1213 10.2042,-1.9693 18.8349,-2.6356 33.9961,-2.6256 16.5128,0.012 23.1087,0.6018 35.2047,3.1518 8.1865,1.7258 24.4527,6.1003 36.1471,9.7211 11.6947,3.6206 26.0144,7.5165 31.8221,8.6577 8.4493,1.6602 16.2279,1.9514 38.9237,1.4586 28.364,-0.616 28.364,-0.616 47.1317,-6.7288 10.3222,-3.3623 25.9856,-8.0925 34.8072,-10.5117 8.8219,-2.4189 22.2182,-5.0681 29.7696,-5.8863 7.7702,-0.842 19.0672,-1.1185 26.026,-0.6366 6.7629,0.4679 17.9755,2.0067 24.9172,3.4196 6.9417,1.4124 18.7512,4.5759 26.2429,7.0302 7.4921,2.4541 20.5643,7.3822 29.0495,10.9513 8.4851,3.5689 22.3035,9.7506 30.7074,13.7368 8.4037,3.9861 22.5603,10.34 31.4587,14.1199 8.8985,3.7799 23.7508,9.6561 33.0053,13.0584 9.2545,3.4022 22.0684,7.5065 28.4752,9.1203 6.4068,1.6139 17.3048,3.5544 24.2175,4.3119 6.9126,0.7576 23.2212,1.3863 36.241,1.3972 13.0201,0.012 24.3981,0.4805 25.2848,1.0435 1.2729,0.8087 1.6813,43.5623 1.9415,203.2927 0.3229,198.354 0.281,202.3043 -2.1626,204.092 -1.3703,1.0025 -15.3492,6.8684 -31.0637,13.035 -15.7147,6.1668 -41.6771,16.8746 -57.6945,23.7951 -16.0172,6.9206 -43.101,19.1725 -60.186,27.2266 -17.0849,8.054 -39.5093,18.3533 -49.8315,22.8874 -10.3222,4.5339 -26.4853,11.1214 -35.9179,14.639 -9.4325,3.5171 -26.0323,9.0472 -36.8881,12.2887 -10.8561,3.2416 -28.1838,7.5904 -38.5059,9.664 -10.3223,2.0736 -28.9606,4.9907 -41.4183,6.4824 -17.56,2.1028 -32.5413,2.8246 -66.6579,3.2122 -33.103,0.376 -47.695,0.039 -58.8917,-1.3642 -8.1865,-1.025 -22.9549,-3.0335 -32.8182,-4.4629 -9.8634,-1.4295 -25.2983,-4.3021 -34.2996,-6.3836 -9.0013,-2.0816 -24.8116,-6.4199 -35.1339,-9.6408 -10.3222,-3.2209 -28.0867,-9.2951 -39.4769,-13.4986 -11.3901,-4.2034 -31.4843,-12.0539 -44.654,-17.4456 -13.1699,-5.3917 -35.0116,-14.4076 -48.5373,-20.0351 -13.5257,-5.6275 -36.70478,-15.0118 -51.50905,-20.8543 -14.80431,-5.8425 -39.84947,-15.2917 -55.65597,-20.9979 -15.80649,-5.7068 -32.71013,-11.8635 -37.56361,-13.6817 -6.72087,-2.5181 -9.15396,-4.1197 -10.20672,-6.7187 -0.93589,-2.3109 -1.58796,-48.1294 -2.01946,-141.9056 -0.35044,-76.1709 -0.20232,-166.8869 0.3292,-201.5911 z"
       style="stroke-width:1.29432" />
    <g
       id="CIF"
       transform="matrix(1.6691531,0,0,1.6691531,-679.04753,-676.24054)">
      <text
         id="text17"
         xml:space="preserve"
         x="1256"
         y="1584"
         font-family="Futura"
         font-size="223px"
         font-weight="700"
         fill="#2a421f">F</text>
      <text
         id="text18"
         xml:space="preserve"
         x="1167"
         y="1587"
         font-family="Futura"
         font-size="223px"
         font-weight="700"
         fill="#2a421f">I</text>
      <text
         id="text19"
         xml:space="preserve"
         x="989"
         y="1575"
         font-family="Futura"
         font-size="223px"
         font-weight="700"
         fill="#2a421f">C</text>
    </g>
    <path
       id="path2"
       fill="#34530e"
       fill-rule="evenodd"
       stroke="none"
       d="m 1307.4809,2145.1927 c -21.9104,-0.097 -44.7879,-0.6591 -50.8389,-1.251 -6.0511,-0.5917 -22.3732,-2.5099 -36.2714,-4.2622 -13.8981,-1.7519 -32.2452,-4.9519 -40.7712,-7.1107 -8.526,-2.1586 -23.3646,-6.2604 -32.975,-9.1149 -9.6105,-2.8548 -25.0452,-7.7481 -34.2997,-10.8743 -9.2544,-3.1262 -33.4259,-12.8475 -53.7144,-21.6026 -20.2886,-8.7552 -49.702,-21.1212 -65.36338,-27.4799 -15.6613,-6.3584 -35.17326,-14.1897 -43.3599,-17.4028 -8.18661,-3.2131 -27.98976,-10.47 -44.00703,-16.1264 -16.01726,-5.6565 -38.1502,-13.2748 -49.18433,-16.9297 -11.03417,-3.6548 -20.32914,-6.8523 -20.65564,-7.1058 -0.32644,-0.2532 -0.71945,-103.56 -0.87334,-229.5705 -0.27982,-229.1104 -0.27982,-229.1104 2.82074,-230.2891 1.90609,-0.725 10.44553,-0.626 22.16674,0.2567 10.7699,0.811 30.07614,1.1099 44.36854,0.6875 21.0835,-0.6235 27.35249,-1.2812 37.59839,-3.9449 6.76281,-1.7582 19.28547,-5.51 27.82798,-8.3374 8.54252,-2.8274 23.68611,-8.7876 33.65243,-13.245 9.9663,-4.4576 23.9201,-11.0036 31.0089,-14.5468 7.0884,-3.5434 21.0672,-9.9348 31.0637,-14.2032 9.9966,-4.2684 24.2912,-9.7644 31.766,-12.2135 7.4746,-2.4487 18.8323,-5.5876 25.2392,-6.9744 6.4068,-1.3874 18.6383,-2.8826 27.1809,-3.323 11.077,-0.5709 16.6496,-1.4347 19.4285,-3.0119 2.1431,-1.216 8.8209,-6.1546 14.84,-10.9746 6.0191,-4.8202 14.399,-12.6395 18.6222,-17.3764 4.2233,-4.737 10.5123,-12.9811 13.9755,-18.3202 3.4632,-5.339 8.0567,-14.2553 10.208,-19.8137 2.1514,-5.5588 5.3716,-15.4602 7.1564,-22.0036 1.7846,-6.5435 4.0973,-18.0128 5.1389,-25.4875 1.2647,-9.0723 2.1032,-29.9419 2.5226,-62.7747 0.3456,-27.0516 1.2307,-54.7441 1.967,-61.5391 0.7363,-6.7955 3.0604,-18.9175 5.1647,-26.9383 2.1044,-8.0207 6.1335,-19.5067 8.9536,-25.5247 2.8199,-6.0178 8.9333,-16.6769 13.585,-23.6867 4.6515,-7.0099 10.8023,-14.8635 13.6683,-17.4527 4.172,-3.7692 6.2483,-4.7079 10.4135,-4.7079 4.3004,0 6.211,0.9296 11.0198,5.3624 3.1998,2.9493 8.9574,9.8431 12.7948,15.3198 3.8374,5.4764 9.6546,15.2882 12.9268,21.8036 3.2722,6.5155 7.3214,15.4931 8.9981,19.9506 1.6765,4.4575 4.2951,13.4186 5.8189,19.9135 2.2521,9.6007 2.7722,15.8945 2.7792,33.6526 0,12.0139 0.5661,37.5693 1.247,56.79 0.7053,19.9123 2.1285,40.2367 3.308,47.2429 1.1388,6.7628 3.5334,18.1067 5.3216,25.2084 1.7884,7.1017 5.0438,17.5601 7.2345,23.2408 2.1909,5.6808 5.9854,13.7447 8.4323,17.9197 2.4471,4.1753 7.0961,10.8991 10.3315,14.9419 3.2355,4.0427 8.2796,9.7025 11.2097,12.5771 2.9298,2.8745 8.8214,8.1666 13.0927,11.7601 4.2715,3.5933 10.6783,8.037 14.2377,9.8746 5.7822,2.9852 8.4023,3.4136 24.5921,4.0225 15.76,0.5927 20.2284,1.2916 34.2996,5.3638 8.8986,2.5755 23.1686,7.4861 31.711,10.9125 8.5426,3.4265 28.6369,12.2278 44.6542,19.5586 16.0173,7.3307 36.1118,16.2035 44.6541,19.7174 8.5427,3.514 21.3564,8.4082 28.4753,10.8764 7.1187,2.468 18.1853,5.6192 24.5922,7.0026 7.4344,1.6055 19.6218,2.8099 33.6866,3.3297 13.0029,0.4802 31.2223,0.1775 44.4411,-0.7385 17.1528,-1.1885 22.8328,-1.1961 24.2345,-0.033 1.5656,1.2991 1.8308,34.4754 1.8308,228.9615 0,214.9834 -0.124,227.552 -2.265,229.451 -1.2458,1.1049 -18.2824,7.9775 -37.859,15.2727 -19.5767,7.295 -43.1656,16.4347 -52.4202,20.3104 -9.2544,3.8754 -21.7769,9.3756 -27.8279,12.2227 -6.051,2.8471 -16.2438,7.3774 -22.6506,10.0674 -6.4069,2.69 -18.3473,8.1003 -26.5338,12.0227 -8.1866,3.9225 -21.2915,10.1546 -29.1223,13.849 -7.8306,3.6943 -20.9358,9.6513 -29.1222,13.2378 -8.1866,3.5865 -20.1269,8.2799 -26.5338,10.4299 -6.4068,2.1498 -17.7645,6.093 -25.2393,8.7623 -7.4748,2.6693 -23.2009,7.2364 -34.9468,10.1489 -11.7458,2.9126 -30.3841,6.4615 -41.4183,7.8861 -11.0342,1.4251 -28.6367,3.4834 -39.1165,4.5747 -13.2873,1.3831 -31.1118,1.9305 -58.8919,1.8085 z m 426.1197,-569.9751 c -35.1086,-0.3474 -52.5819,-1.0581 -61.4804,-1.8036 -11.4618,-0.9602 -20.8724,-2.7 -32.2758,-5.9678 -8.853,-2.5368 -27.2,-9.0362 -40.771,-14.4429 -13.5712,-5.4071 -30.7903,-12.8893 -38.2652,-16.6275 -7.4748,-3.7381 -22.327,-10.5754 -33.0052,-15.194 -10.6783,-4.6185 -27.5735,-11.061 -37.545,-14.3163 -11.3602,-3.7087 -23.8564,-6.7425 -33.4664,-8.1248 -11.2907,-1.6241 -19.8246,-2.011 -32.3488,-1.4669 -13.5911,0.5904 -20.5257,1.6505 -34.4853,5.2716 -9.6106,2.4931 -26.5013,7.5888 -37.5355,11.3244 -20.0621,6.7919 -20.0621,6.7919 -45.9485,7.4015 -14.6671,0.3452 -30.6548,0.012 -36.8883,-0.7686 -6.6302,-0.8305 -20.7735,-4.5157 -35.5939,-9.2744 -13.5257,-4.343 -30.999,-9.1957 -38.8299,-10.7833 -10.706,-2.1709 -18.7322,-2.8869 -32.3581,-2.8869 -9.9662,0 -22.78,0.7787 -28.4751,1.7304 -5.695,0.9518 -14.1404,2.7707 -18.7677,4.0417 -4.6271,1.2711 -12.4902,3.7661 -17.4734,5.544 -4.9831,1.7782 -15.7584,6.1432 -23.9448,9.7002 -8.1867,3.5572 -24.4951,10.9581 -36.2413,16.4469 -11.7459,5.4887 -30.6755,13.7704 -42.06544,18.4038 -11.39007,4.6332 -29.01289,10.671 -39.16178,13.4171 -11.41059,3.0875 -24.0064,5.5132 -33.00529,6.3563 -8.00397,0.7496 -24.82371,1.365 -37.37709,1.3674 h -22.82449 l -0.80817,43.0363 c -0.44452,23.6699 -1.07185,74.7797 -1.39408,113.577 -0.32224,38.7973 -0.0899,111.2011 0.51624,160.8969 1.04044,85.3029 1.2343,90.4527 3.46738,92.0855 1.30095,0.9516 11.99453,5.0647 23.76362,9.1409 11.769,4.0763 33.33834,11.9329 47.93189,17.4596 14.59354,5.5263 38.76503,15.0082 53.71448,21.0708 14.94943,6.0625 42.03303,17.2601 60.18603,24.883 18.153,7.6234 41.742,17.0761 52.4202,21.0065 10.6782,3.9304 28.5207,10.2295 39.6502,13.998 11.1295,3.7684 30.059,9.2223 42.0657,12.1201 13.205,3.1868 32.3138,6.5773 48.3636,8.5815 14.5935,1.8223 31.7758,3.8278 38.1827,4.4567 6.4069,0.629 24.1716,0.8978 39.477,0.5977 15.3051,-0.2999 34.526,-1.1316 42.7125,-1.8478 8.1866,-0.7161 22.4566,-2.2171 31.7111,-3.3356 9.2545,-1.1186 21.1944,-2.8622 26.5337,-3.8751 5.3391,-1.0128 13.4933,-2.6953 18.1205,-3.7393 4.6271,-1.0438 13.6552,-3.3534 20.0619,-5.1327 6.4069,-1.7791 19.8032,-5.9497 29.7696,-9.2679 9.9661,-3.3181 24.2363,-8.5497 31.7108,-11.6257 7.4748,-3.0761 18.25,-7.5708 23.9452,-9.9884 5.6948,-2.4173 16.7615,-7.4609 24.5921,-11.2084 7.8308,-3.7471 21.2269,-10.0663 29.7695,-14.0424 8.5425,-3.976 19.6091,-9.0974 24.5922,-11.3807 4.9831,-2.2835 13.7197,-6.2091 19.4148,-8.7236 5.6952,-2.5146 16.4703,-7.1497 23.9451,-10.3001 7.4747,-3.1505 19.2503,-7.9066 26.1681,-10.5688 6.9177,-2.6626 20.6027,-7.9477 30.4109,-11.7451 9.8086,-3.7976 18.2949,-7.6815 18.8591,-8.6312 0.5642,-0.9497 0.8579,-92.8797 0.6529,-204.2888 z m -435.5403,-79.7592 c 6.051,0.088 18.0271,-0.9887 26.6139,-2.3897 8.5869,-1.4011 21.6919,-4.6176 29.1222,-7.148 7.4307,-2.5303 15.1651,-5.3345 17.1874,-6.231 3.677,-1.6301 3.677,-1.6301 0.647,-3.1935 -1.6665,-0.8596 -8.563,-3.0438 -15.3259,-4.8533 -6.7628,-1.8097 -16.6643,-4.0881 -22.0035,-5.063 -5.339,-0.9749 -14.658,-2.4129 -20.7092,-3.1958 -6.0509,-0.7828 -15.9526,-1.4209 -22.0036,-1.4181 -6.0508,0 -16.2438,0.6311 -22.6506,1.3961 -6.4068,0.7651 -14.2699,2.2505 -17.4734,3.3015 -3.2034,1.0508 -8.2478,3.071 -11.2097,4.4895 -2.9617,1.4183 -5.7416,3.5079 -6.1774,4.6431 -0.4356,1.1356 -0.4687,3.0833 -0.074,4.329 0.4105,1.2937 3.8901,3.4209 8.1187,4.9636 4.0699,1.4846 10.8948,3.6017 15.1662,4.7044 4.2712,1.1027 12.7166,2.793 18.7677,3.7561 6.0511,0.9631 15.9524,1.8224 22.0035,1.9091 z"
       style="stroke-width:1.29432" />
    <path
       id="path3"
       fill="#317aba"
       fill-rule="evenodd"
       stroke="none"
       d="m 1301.9433,1637.1346 c -4.7709,0.3702 -11.0438,0.1672 -15.2074,-0.5197 -4.1259,-0.6806 -9.9549,-2.5896 -14.2376,-4.2926 -5.3002,-2.1074 -14.1426,-7.1743 -22.1089,-11.0658 -7.5022,-3.6644 -14.6044,-8.4534 -18.1206,-8.6352 -3.6895,-0.1904 -8.4223,2.6614 -17.0451,6.0586 -7.5803,2.9864 -15.9529,7.8629 -21.3565,9.259 -6.317,1.632 -11.0292,2.1946 -19.4149,1.881 -6.6723,-0.2495 -13.6553,-1.5922 -18.2498,-3.1577 -4.0672,-1.386 -9.6231,-4.4909 -13.5904,-7.1704 -4.3012,-2.905 -10.3151,-7.9257 -14.4951,-12.272 -3.7532,-3.9027 -8.6074,-7.992 -8.2863,-10.5995 0.2791,-2.2672 0.292,-1.8492 2.9753,-2.3196 3.0719,-0.5388 8.9514,3.087 14.7186,4.7959 6.4017,1.8973 14.7552,4.8549 20.7092,5.5354 7.5324,0.8611 12.1339,0.7299 19.8374,-0.6659 5.7711,-1.0456 12.9576,-3.9597 17.8103,-5.9994 4.8864,-2.0538 11.5723,-6.3036 17.04,-8.6742 5.1262,-2.2225 11.0669,-4.9441 14.8273,-5.3679 3.4847,-0.3926 8.0974,0.3337 11.9033,1.4713 4.7891,1.4317 12.856,6.3245 20.4298,10.072 7.6572,3.7884 15.9758,8.9883 21.1521,10.5031 5.7292,1.6766 10.3366,2.883 18.0047,1.9616 10.972,-1.3182 13.9157,-5.1034 32.8908,-11.9189 18.9258,-6.7977 21.2381,-10.7338 30.5326,-10.8692 7.2292,-0.1044 11.6496,3.1373 21.4189,6.9296 7.2835,2.827 15.3458,7.8326 20.7092,9.4386 6.2213,1.8624 11.2207,2.816 19.3348,3.0045 6.6907,0.1555 14.9299,-0.9966 20.7092,-2.2395 5.4646,-1.1752 12.7422,-4.1881 18.1337,-5.9278 4.4364,-1.4318 8.6255,-4.1387 9.5731,-3.0491 0.6817,0.7836 -1.0547,3.3426 -2.7673,5.7686 -2.526,3.5776 -8.1434,9.0973 -13.4563,13.542 -5.5746,4.6638 -12.9173,10.1982 -18.2308,12.5994 -6.6506,3.0058 -10.8632,4.2329 -19.1433,4.7699 -8.1083,0.5257 -12.7599,-0.3626 -19.6018,-2.2582 -5.5182,-1.5286 -13.3046,-5.8978 -19.6259,-8.9017 -5.7747,-2.7442 -11.3201,-6.9357 -14.421,-7.1707 -3.5412,-0.2684 -6.4078,1.2208 -13.6512,4.376 -6.1381,2.6738 -13.6242,7.8708 -19.1679,10.7581 -5.0766,2.6438 -11.2952,6.0803 -15.5319,7.4794 -4.0295,1.3304 -10.2233,2.5003 -15.0003,2.871 z m -3.883,-55.2305 c -8.4248,0.2579 -13.6134,-0.4606 -19.4148,-1.9393 -4.3306,-1.1037 -10.0743,-3.9448 -14.2376,-6.012 -4.3856,-2.1772 -10.4857,-6.1637 -15.3316,-8.8215 -4.5807,-2.5126 -9.7477,-6.0656 -13.2667,-6.9274 -3.9721,-0.9728 -6.0132,-0.8361 -9.9079,0.012 -3.9193,0.8495 -10.621,5.2788 -17.3626,7.8818 -9.3907,3.6258 -14.8216,6.2673 -23.0612,7.4084 -7.8046,1.0806 -12.9493,0.7095 -20.3665,-0.7255 -5.5063,-1.0656 -11.421,-3.4652 -15.1211,-5.4624 -3.563,-1.9231 -8.4656,-6.0938 -12.4263,-9.3149 -3.9906,-3.2455 -9.0013,-7.4543 -11.9126,-10.497 -2.3904,-2.4986 -6.0088,-5.1416 -5.707,-7.0855 0.2879,-1.8577 0.3027,-1.5731 2.8533,-1.8892 2.5067,-0.3108 6.2506,2.3233 9.5921,3.3728 3.9012,1.2254 9.8804,3.2951 14.8834,4.1285 5.765,0.9607 14.9965,1.5652 22.3578,1.3349 8.9402,-0.28 14.6743,-0.7479 20.5547,-2.5246 4.5819,-1.3841 10.7749,-5.3358 15.8232,-7.9306 4.8165,-2.4756 10.1195,-5.9845 13.5839,-7.1572 2.9676,-1.0046 7.2985,-1.7509 10.4851,-1.7769 3.1142,-0.027 7.1911,0.6396 9.8683,1.5079 3.1454,1.0204 8.23,4.1285 12.8127,6.6016 4.7721,2.5751 10.3903,6.3297 14.2376,8.038 3.8078,1.6909 10.0006,3.8611 15.1401,5.0475 5.1425,1.1871 11.6775,2.2568 15.8442,2.1028 4.3445,-0.1604 10.9391,-1.5928 16.5148,-3.4485 6.2555,-2.082 15.0863,-6.9633 22.1724,-10.35 6.5469,-3.1287 13.2593,-7.3654 17.147,-8.3874 3.1633,-0.8316 7.9466,-1.3352 11.8151,-0.7014 6.0819,0.9966 12.2626,5.9191 23.68,9.5713 16.0043,5.1191 19.2028,7.6734 36.31,8.6957 14.9758,0.8949 20.5257,-1.4455 30.7361,-3.572 5.8333,-1.215 11.6056,-5.3606 14.1185,-4.2903 1.9298,0.8219 1.3479,-0.3622 0.9749,1.9166 -0.5244,3.2036 -7.3778,7.8197 -13.0432,12.7936 -6.0742,5.3334 -13.3439,11.5652 -18.2269,14.3016 -4.4215,2.4775 -10.2527,4.6712 -15.2396,5.6711 -4.7859,0.9595 -11.6817,1.387 -16.5604,0.654 -7.099,-1.0668 -12.3527,-4.1391 -23.0142,-8.0836 -8.3209,-3.0786 -15.7221,-7.5596 -20.4587,-7.958 -4.389,-0.3688 -7.4102,0.7593 -12.0752,2.4882 -4.3774,1.622 -10.8201,6.1938 -16.5884,9.2044 -5.8873,3.0719 -13.098,7.2754 -18.1206,8.8736 -5.7691,1.8358 -12.154,3.0107 -20.0621,3.2526 z m 5.1773,-86.9516 c -9.2046,0.4352 -19.5947,0.053 -25.2393,-0.5923 -4.9736,-0.5694 -12.6905,-2.2662 -18.7677,-3.8924 -6.0329,-1.6144 -13.4856,-3.7356 -17.813,-5.8723 -3.3781,-1.6678 -7.0552,-3.4349 -7.6221,-5.2013 -0.4333,-1.3502 0.4605,-3.0212 1.6339,-4.4666 1.5295,-1.8842 5.4676,-4.0962 9.0309,-5.6326 4.9788,-2.1465 12.2073,-3.9701 20.2283,-5.3053 8.0154,-1.3342 19.3796,-2.0215 27.5472,-2.0256 8.1803,0 19.5559,0.9168 27.6619,2.0068 8.2669,1.1118 20.0293,3.5611 28.6413,5.6552 7.7047,1.8739 16.1687,3.7065 19.9675,5.7889 2.5489,1.3972 4.0616,2.0851 3.8457,3.3776 -0.3601,2.155 -7.1323,3.2916 -12.8488,5.2748 -7.0101,2.4326 -17.3302,5.623 -25.202,7.2037 -9.9078,1.9897 -19.2956,3.125 -31.0638,3.6814 z"
       style="stroke-width:1.29432" />
    <path
       id="path4"
       fill="#4e6c1c"
       fill-rule="evenodd"
       stroke="#4e6c1c"
       stroke-width="3.88298"
       stroke-linecap="round"
       stroke-linejoin="round"
       d="m 1702.2677,1011.0952 c -4.3513,-0.3909 -9.6368,-1.6925 -12.8846,-2.7096 -3.2596,-1.0208 -8.3361,-3.0884 -12.2316,-5.1668 -3.884,-2.0721 -8.616,-4.7909 -11.0042,-7.21774 -2.1606,-2.19593 -4.6533,-5.70774 -5.479,-8.65445 -1.0455,-3.73 -0.8528,-6.09472 0.1749,-9.78396 0.8503,-3.05143 3.5116,-7.07668 5.7628,-9.936 2.4908,-3.16329 6.9977,-7.37848 10.8253,-10.33919 4.0864,-3.161 10.3811,-7.03455 15.2313,-9.43039 4.7382,-2.34048 11.1841,-4.85805 15.6963,-5.96644 4.9268,-1.21038 13.3874,-2.2005 20.492,-2.44097 8.1636,-0.27641 15.7132,0.0114 22.0246,1.12069 5.6698,0.99747 14.1976,3.87987 20.8541,6.39203 6.4819,2.44625 14.1718,5.63136 18.3468,8.2881 3.2713,2.08187 7.2332,4.49402 7.9602,6.83003 0.9359,3.00814 0.3026,4.38778 -2.369,8.9631 -2.3734,4.06418 -8.5228,9.19932 -13.7181,13.35825 -5.7036,4.5659 -14.4206,10.07404 -20.9465,13.66352 -6.0814,3.34482 -13.7172,6.90022 -18.6012,8.47962 -4.8648,1.5731 -13.0638,3.2101 -19.8641,3.9814 -7.0207,0.7961 -14.9935,1.0429 -20.27,0.5688 z" />
    <path
       id="path5"
       fill="#4e6c1c"
       fill-rule="evenodd"
       stroke="#ffffff"
       stroke-width="3.88298"
       stroke-linecap="round"
       stroke-linejoin="round"
       d="m 1625.5244,913.74063 c -1.9744,0.32544 -4.6607,-0.27493 -6.7505,-1.09371 -2.3921,-0.93684 -5.8283,-3.32521 -8.3218,-5.52479 -2.9119,-2.56878 -7.0662,-7.14054 -9.797,-11.37157 -2.9443,-4.562 -6.2936,-11.47906 -7.8212,-16.8262 -2.0443,-7.15627 -2.7497,-13.18359 -2.7702,-22.70434 -0.018,-9.14914 0.9566,-16.72801 2.8938,-24.59225 1.6846,-6.83748 5.5158,-16.82275 9.2631,-24.17391 3.8095,-7.47318 6.1889,-12.98465 9.1297,-14.0287 2.0515,-0.72822 4.6664,0.62188 7.7799,2.50617 3.3748,2.04246 7.6632,6.80153 10.9789,10.79289 3.5726,4.3004 7.8531,10.86983 10.6158,15.77059 2.7374,4.85599 6.0749,11.74009 7.8015,16.82632 1.6845,4.96175 3.337,11.92313 3.7957,16.9439 0.4772,5.22518 0.1153,13.14914 -0.7334,19.19804 -0.818,5.83623 -2.3814,12.80049 -4.1137,16.78118 -1.5165,3.48529 -4.4889,7.65604 -6.8086,10.38146 -2.2084,2.59519 -5.565,5.60804 -8.0231,7.34161 -2.2021,1.55317 -5.032,3.42936 -7.1189,3.77331 z" />
    <path
       id="path6"
       fill="#4e6c1c"
       fill-rule="evenodd"
       stroke="#4e6c1c"
       stroke-width="3.88298"
       stroke-linecap="round"
       stroke-linejoin="round"
       d="m 1691.1197,920.26713 c -4.7114,0.46543 -9.6175,0.19901 -11.8807,-0.34795 -1.5364,-0.37128 -3.5793,-1.22026 -4.6529,-2.21876 -1.3813,-1.28456 -2.8581,-4.61379 -4.4204,-7.76594 -1.5203,-3.06694 -2.9033,-6.0992 -3.1672,-7.43176 -0.3446,-1.74035 -0.4667,-6.54385 0.1413,-11.81933 0.7474,-6.48562 2.2204,-13.4825 4.1288,-18.67714 1.6672,-4.53821 4.8441,-10.18381 7.3245,-13.84653 2.6098,-3.85402 7.3235,-9.45874 11.4834,-13.52533 4.4672,-4.36723 11.3811,-9.95197 16.7885,-13.61192 5.2671,-3.56476 12.5821,-7.43361 17.5423,-9.78294 4.703,-2.22748 11.4393,-4.81417 16.3011,-6.43417 4.6864,-1.56154 10.8983,-3.84392 15.2966,-4.18932 5.305,-0.41665 6.8433,-0.94198 8.8428,0.98159 1.8255,1.75608 1.6199,6.4537 1.7357,11.54096 0.1213,5.33094 -0.797,12.64328 -1.8474,17.74558 -1.0805,5.24953 -3.4873,12.7851 -5.7143,18.32367 -2.2853,5.68292 -6.0561,13.28016 -9.1863,18.4323 -3.1103,5.11953 -7.9465,11.92716 -11.9234,16.36754 -3.9507,4.41099 -9.9877,9.94508 -14.6968,13.40832 -4.5286,3.33037 -10.8447,7.19589 -15.4366,9.01651 -5.0299,1.99402 -10.7301,3.24872 -16.659,3.83462 z" />
    <path
       id="path7"
       fill="#4e6c1c"
       fill-rule="evenodd"
       stroke="#4e6c1c"
       stroke-linecap="round"
       stroke-linejoin="round"
       d="m 1572.3938,955.71315 c -1.9135,0.3684 -5.0689,-0.51538 -8.0547,-1.30143 -4.0666,-1.07075 -9.2764,-2.84256 -13.3119,-4.93006 -4.2703,-2.20888 -9.2966,-5.58667 -12.893,-8.82139 -3.8006,-3.418 -8.0309,-8.5327 -11.095,-13.01627 -3.4037,-4.98058 -7.2477,-11.8772 -9.6348,-17.92851 -3.0229,-7.66248 -5.0415,-14.81163 -6.2779,-23.75338 -1.2635,-9.13685 -1.3995,-16.63246 -0.414,-25.21592 0.6068,-5.28638 0.7745,-11.07369 3.176,-12.70311 2.0148,-1.36689 6.4348,0.353 10.4762,1.4071 5.6971,1.48597 12.8244,4.35426 18.4203,7.28832 5.5771,2.9242 11.8649,7.21691 16.3772,10.94359 4.1922,3.46243 8.9591,8.27283 12.2657,12.41934 3.4133,4.28042 7.4534,10.15902 9.8744,15.50179 2.9548,6.52053 4.6611,12.78097 5.8949,20.21354 0.9786,5.8965 1.403,12.68748 0.7881,17.4339 -0.4768,3.68132 -1.8127,8.0342 -3.4749,11.12181 -1.5442,2.86781 -4.1595,5.93855 -6.5201,7.9808 -1.8314,1.58463 -3.9798,3.04857 -5.5965,3.35988 z"
       style="stroke-width:1.29432" />
    <path
       id="path8"
       fill="#4e6c1c"
       fill-rule="evenodd"
       stroke="none"
       d="m 1314.5192,847.80687 c -0.7725,12.15591 1.5484,21.60672 0.3674,31.71097 -0.5567,4.7602 2.1865,37.08347 2.6056,45.40752 0.7852,15.60147 2.5091,40.95738 3.8348,61.69836 1.3748,21.50928 3.27,49.70828 4.5048,68.59908 1.1,16.831 2.2246,37.4274 3.257,50.0616 0.7598,9.2957 -0.093,18.4366 1.9612,19.9239 1.4751,1.0676 7.1287,-1.365 13.2519,-2.9583 7.3896,-1.9229 17.2945,-5.1966 24.299,-7.2379 7.2434,-2.111 18.1838,-5.0976 26.5338,-7.5627 9.2316,-2.7252 23.3764,-6.8719 34.2997,-10.4776 10.6897,-3.5286 23.7637,-8.0759 31.7108,-11.2601 6.9631,-2.7897 16.0902,-6.672 22.0035,-9.8513 5.7297,-3.0804 13.4551,-7.9846 18.7679,-11.9154 5.3874,-3.9861 12.5627,-10.2042 17.5207,-15.0074 5.1301,-4.97 11.9257,-12.8131 17.0109,-18.631 5.0053,-5.7262 11.3099,-13.3895 15.4848,-18.5097 4.3584,-5.3455 11.1948,-13.95624 16.6412,-20.94375 5.5393,-7.10666 12.2865,-16.50075 17.0728,-22.33055 5.0827,-6.19095 13.7145,-16.29048 21.3565,-24.24842 7.0575,-7.34932 14.0929,-14.79704 17.8739,-17.07586 2.7368,-1.64951 6.9125,-3.35162 11.0017,-3.67351 3.3253,-0.26171 5.6103,0.69109 7.7659,1.29432 2.5297,0.70786 4.9399,1.45223 6.4718,2.58865 1.8818,1.39619 3.4559,4.02077 5.1771,6.47173 1.0046,1.4303 2.8323,2.05661 3.1079,5.07119 0.6166,6.73976 -1.0681,7.56497 -7.9697,20.70928 -6.4953,12.37031 -22.9626,33.32373 -36.3787,53.21732 -13.6267,20.2061 -28.9162,43.5416 -37.5855,56.4971 -6.4011,9.566 -13.2341,20.4191 -17.3936,25.8423 -3.9328,5.1276 -11.2099,13.9516 -18.2485,20.9694 -7.531,7.5093 -16.6616,15.494 -23.3775,20.2242 -5.9458,4.1881 -14.9232,8.8441 -21.3562,12.0603 -6.8751,3.4373 -17.93,7.8996 -26.5337,11.632 -9.3836,4.0708 -23.2971,9.8264 -33.6526,14.4457 -10.2577,4.5758 -23.6539,10.5489 -32.3581,14.985 -7.7165,3.9331 -16.8907,9.1373 -22.4288,12.5169 -4.6502,2.8374 -9.9605,6.9964 -13.5905,9.0367 -2.8634,1.6094 -5.93,4.0239 -7.6141,3.5595 -1.6957,-0.4679 -2.2349,-2.3357 -3.6563,-5.3992 -1.8045,-3.889 -3.1371,-12.0385 -5.3567,-19.0817 -2.3265,-7.3827 -5.2708,-16.3791 -7.6099,-21.7286 -2.2552,-5.1576 -6.2816,-12.8844 -9.9016,-18.6763 -3.7021,-5.9235 -9.1129,-13.4366 -13.2693,-18.2098 -3.6617,-4.2053 -8.2052,-8.9265 -11.3338,-10.939 -2.7036,-1.7393 -6.5645,-3.5721 -9.8595,-3.8879 -3.9016,-0.374 -7.1401,0.2856 -10.7566,2.0069 -3.6495,1.7369 -8.9175,6.6187 -13.1322,11.15 -4.8479,5.2122 -10.9416,13.8164 -15.1102,20.6562 -4.3404,7.1219 -9.5056,17.6992 -12.762,25.5573 -3.1944,7.7085 -6.2834,18.4167 -8.5936,25.7104 -1.8718,5.9096 -2.0089,12.7626 -4.0263,13.4487 -1.7402,0.5918 -4.8422,-3.4055 -9.2146,-6.6393 -6.0207,-4.4524 -15.5094,-12.4012 -24.0129,-18.2238 -8.8052,-6.029 -20.621,-13.0754 -28.4753,-17.5205 -8.8803,-5.0258 -24.9914,-13.303 -39.0998,-20.2771 -14.7791,-7.3058 -33.7727,-15.9656 -45.9483,-21.6196 -10.4758,-4.8645 -23.4765,-10.0155 -30.8304,-14.1275 -6.2112,-3.4732 -13.0863,-7.4584 -16.6837,-11.1712 -3.715,-3.8344 -6.826,-11.0686 -10.8954,-17.4385 -4.2469,-6.6477 -5.9175,-11.2375 -8.5558,-13.1006 -2.2047,-1.5569 -8.0896,-1.9955 -13.3456,-3.2307 -6.9675,-1.6374 -18.82944,-4.2603 -28.81447,-6.5684 -10.23966,-2.367 -23.0211,-5.3137 -31.06379,-7.2804 -7.15623,-1.75 -16.75219,-3.6343 -22.95853,-5.849 -5.9888,-2.137 -11.82676,-4.177 -15.26884,-7.1145 -3.84158,-3.2784 -7.05915,-9.2107 -11.17312,-16.5476 -4.25331,-7.5855 -9.20674,-19.907 -13.37363,-29.30184 -4.33483,-9.77327 -10.12314,-23.36716 -14.21821,-33.00528 -4.08847,-9.62261 -10.32426,-22.97994 -13.82955,-33.00529 -3.86622,-11.05772 -6.37895,-16.41657 -5.94462,-20.99464 0.2411,-2.54146 2.28814,-5.7733 4.02778,-8.0264 2.13915,-2.77054 6.74528,-6.91626 11.16617,-9.8114 5.4552,-3.57245 8.39762,-5.91168 11.85968,-5.56406 2.97677,0.29892 4.81375,2.41535 7.4953,5.56681 4.85128,5.70129 12.35107,23.60799 21.46033,41.41834 9.49952,18.57343 18.89236,38.88573 24.49745,48.52752 3.54478,6.09783 6.97554,12.56404 9.65442,14.55557 3.2754,2.43477 13.2124,4.40937 23.12375,6.98527 10.00658,2.6009 20.23406,6.6042 24.46464,5.3474 3.37986,-1.0041 2.91926,-0.3105 3.68522,-3.7398 1.18086,-5.2868 -6.3237,-18.36516 -11.3369,-32.19905 -5.39433,-14.88535 -11.90017,-31.85348 -15.43894,-41.41834 -3.53569,-9.55681 -9.75461,-26.59615 -15.20895,-41.41845 -5.95805,-16.19126 -14.30171,-38.20107 -19.80798,-53.71446 -4.76538,-13.426 -10.65999,-27.70618 -12.05078,-35.31587 -1.39419,-7.62848 -1.85308,-9.44453 -0.45757,-13.98999 0.86093,-2.80432 3.70752,-5.83789 5.71892,-7.86928 2.25978,-2.28227 6.55063,-5.48303 10.3644,-7.68994 3.62772,-2.09917 7.67035,-4.68024 10.05771,-4.38131 2.53825,0.31789 4.35081,2.26949 7.08814,5.50087 3.04368,3.59321 6.39326,11.32456 9.60213,17.79698 3.57859,7.21816 8.02089,17.71828 11.44551,25.23937 3.78683,8.31658 9.86713,21.61902 14.79408,32.35808 5.02789,10.95908 11.45951,25.08777 15.79095,34.29961 3.8018,8.08576 8.0537,18.1822 11.4944,23.94377 2.593,4.34163 4.8298,9.10838 6.8713,9.4406 1.9837,0.32258 5.3388,-3.4095 9.0799,-6.47023 4.1966,-3.43327 9.697,-7.65202 12.0071,-11.23607 3.1815,-4.93659 3.616,-5.57222 4.1627,-12.29613 0.3915,-4.8128 -1.8304,-11.7518 -2.8116,-16.97238 -1.008,-5.36402 -2.6409,-12.80119 -3.8126,-18.12052 -1.3324,-6.04833 -3.7357,-16.13936 -5.6616,-24.59214 -2.1179,-9.29567 -5.5103,-22.45244 -7.2619,-32.20757 -1.495,-8.32605 -3.4112,-16.46963 -2.6563,-19.77116 0.5066,-2.21546 2.9577,-5.60659 5.463,-8.28229 2.9796,-3.18241 8.267,-7.2899 12.8829,-9.77079 4.702,-2.52736 8.4225,-4.46188 10.7508,-3.77317 1.9573,0.57891 4.0337,4.18601 5.8273,7.53827 2.8836,5.3887 6.202,17.48302 9.667,28.73127 3.9685,12.8821 8.7227,31.06554 12.3269,44.00705 3.4226,12.2905 8.1696,27.88565 10.5717,38.18259 2.4311,10.42096 5.1432,19.44562 5.3018,27.828 0.1696,8.95197 -0.2109,11.32231 -2.3795,15.70218 -2.4835,5.01571 -13.7114,13.74904 -23.4005,24.17631 -11.1552,12.00478 -20.4982,19.8735 -23.2388,26.0532 -2.2083,4.97977 -2.1013,7.22323 -1.3925,13.02614 0.6331,5.18247 4.702,13.89982 7.899,21.66655 3.723,9.044 9.3972,22.5411 14.8409,32.2394 7.3345,13.0668 9.342,17.0779 15.3395,22.8336 3.6625,3.5148 10.1769,6.6245 14.6755,9.0059 4.829,2.5563 12.6383,5.8455 18.7676,8.455 6.8764,2.9277 17.5392,7.1526 25.8865,10.3914 9.2522,3.5898 23.3435,8.9021 34.2996,12.8526 11.3514,4.093 27.0938,9.3999 38.1825,13.2324 10.2203,3.5325 22.6037,8.1684 30.384,10.4735 5.916,1.7528 10.7816,4.2427 12.3779,3.0833 5.1185,-3.7176 2.139,-27.6238 3.6672,-52.0257 1.6947,-27.0625 3.2885,-58.328 4.1639,-76.03297 0.7705,-15.58081 1.7942,-38.99415 2.5129,-56.95023 0.7264,-18.14739 1.9014,-42.26961 2.1088,-58.69182 0.172,-13.61548 1.7113,-26.04148 -0.323,-30.26609 -1.3026,-2.70555 -5.1919,-5.03903 -10.2373,-8.34587 -6.2957,-4.12596 -18.9122,-9.79016 -29.7697,-15.35973 -11.7831,-6.04442 -27.5793,-13.85676 -38.1824,-19.47315 -9.4944,-5.0291 -21.0199,-11.02769 -27.6649,-15.20754 -5.4248,-3.41229 -12.0788,-7.38738 -15.1307,-10.81027 -3.4426,-3.86116 -5.4304,-7.70447 -7.6055,-13.7299 -1.7001,-4.70996 -2.6155,-10.56174 -2.6465,-13.99079 -0.025,-2.6193 0.045,-5.76948 1.1678,-6.85098 1.3971,-1.34521 3.6016,-1.32277 7.7867,-1.02683 5.4014,0.38204 15.8539,4.01253 25.6894,7.17424 11.2722,3.62339 26.753,9.49588 37.8183,13.79234 10.6665,4.14145 24.3807,10.13988 33.6527,13.87275 7.5267,3.03025 15.5386,9.29333 18.1205,7.12163 1.9545,-1.64413 1.5178,0.18091 -0.6472,-3.15444 -2.6268,-4.04683 -12.2183,-9.17072 -20.7092,-14.83592 -10.0073,-6.67718 -24.7488,-15.58482 -35.594,-22.07524 -10.9837,-6.57338 -26.6496,-15.08034 -37.5354,-21.66368 -9.1858,-5.55508 -18.7302,-10.3113 -21.5097,-13.61695 -1.8822,-2.23837 -3.7336,-7.27568 -4.9301,-11.92953 -1.2845,-4.9953 -2.7487,-11.71133 -1.7882,-15.98126 1.2275,-5.45647 1.1399,-6.06507 4.6133,-7.45784 3.9389,-1.57951 12.3163,2.64411 22.0034,5.7148 10.6459,3.37471 25.3797,9.12302 35.9648,13.53022 11.0761,4.61167 27.0478,12.39153 39.292,17.98372 10.2951,4.70188 19.86,12.23068 21.7702,9.9217 0.531,-0.64228 -1.162,-2.07374 -2.575,-3.63634 -2.0071,-2.21941 -6.0208,-5.42283 -9.3699,-8.16127 -4.0856,-3.34056 -10.9142,-8.61615 -16.6549,-12.77261 -6.408,-4.63947 -16.1304,-11.10825 -23.456,-16.016 -7.5604,-5.06513 -18.3059,-11.88183 -25.8611,-16.99687 -7.295,-4.93903 -17.1158,-11.11284 -23.0665,-16.08173 -5.7582,-4.80806 -10.1694,-8.35544 -11.998,-11.93096 -1.398,-2.73354 -1.7556,-7.69642 -1.8491,-11.65966 -0.097,-4.09312 0.4384,-9.45274 1.4258,-12.89681 0.8031,-2.80162 1.763,-5.65349 3.0166,-6.273 1.3697,-0.67688 4.7267,0.65837 7.9581,1.65141 4.8101,1.47823 13.443,5.38885 21.252,8.77791 8.6541,3.75596 20.3951,9.01857 28.4749,12.96426 7.9452,3.87966 18.7944,9.68043 26.5339,13.85664 7.0508,3.80461 15.0679,8.76877 19.9954,11.14176 3.4636,1.668 6.9194,4.12487 7.648,3.13705 0.7138,-0.96741 -2.4557,-3.44926 -5.1106,-6.20634 -4.0263,-4.18097 -12.1491,-11.04805 -19.3075,-17.15993 -8.5823,-7.32782 -22.3544,-18.20854 -33.0054,-27.06627 -10.0914,-8.39255 -21.8222,-17.55253 -27.6243,-23.29784 -4.3402,-4.29771 -9.3306,-9.60742 -11.4929,-13.35767 -1.831,-3.17562 -3.5364,-7.72107 -3.8366,-11.00176 -0.3343,-3.65735 -0.1977,-8.53651 1.9356,-12.54368 2.8712,-5.39313 3.1438,-6.15895 7.5263,-6.94798 5.0128,-0.90249 12.1796,4.2609 23.1478,9.49319 10.2964,4.91186 22.9745,12.12371 31.07,17.0155 7.2118,4.35775 16.0363,10.47501 21.7698,14.45183 4.7766,3.31291 9.7064,7.50509 12.6743,9.17845 1.9172,1.08072 3.8162,2.43019 4.41,1.86422 0.5999,-0.57195 -0.49,-2.68834 -1.679,-4.56931 -3.45,-5.45696 -16.7567,-17.24414 -30.0625,-30.66786 -14.152,-14.27755 -30.4762,-29.23827 -38.061,-37.97449 -5.2196,-6.01232 -10.9861,-12.73723 -12.7778,-17.04222 -1.7512,-4.20734 -2.0509,-7.69895 -1.8392,-12.55883 0.1613,-3.71074 0.885,-8.3104 2.475,-10.45729 1.738,-2.34661 2.9261,-3.19094 5.8836,-3.43379 3.2629,-0.26781 9.2347,3.04842 14.8327,5.65919 6.4286,2.99802 15.0301,7.97862 21.0736,11.73977 5.9417,3.69781 13.7019,9.12775 18.9527,13.10868 5.038,3.81946 11.2355,9.6534 15.8872,13.17362 3.6906,2.79294 6.7304,6.22119 8.0643,5.55663 0.6038,-0.30082 0.4151,-1.56858 0.1056,-2.44927 -1.4766,-4.20404 -12.056,-13.97752 -22.487,-25.7067 -11.1661,-12.55601 -23.5161,-25.83973 -29.5831,-32.72121 -4.1754,-4.7357 -9.7528,-10.00763 -11.9727,-13.92663 -2.6456,-4.67125 -3.6893,-6.91181 -4.2064,-12.6688 -0.3872,-4.30879 0.2614,-10.44214 2.0313,-14.27059 2.2485,-4.86321 2.49,-5.68369 5.5943,-6.31743 2.9872,-0.6097 8.6622,3.63508 14.0517,6.67213 6.1106,3.44311 13.9326,8.77998 19.2005,12.66121 5.4223,3.995 12.8762,10.94663 19.1158,15.67995 5.254,3.98599 9.4786,9.14053 10.9122,7.64303 1.5253,-1.59358 -4.6446,-6.40273 -8.8587,-11.54022 -4.9147,-5.99195 -11.9218,-13.24487 -16.1377,-18.42834 -4.3592,-5.35962 -11.4693,-13.72138 -15.9856,-21.18461 -6.3044,-10.41842 -8.4159,-12.94387 -9.1862,-19.41488 -0.4575,-3.84456 0.6436,-9.02186 2.5253,-12.14424 2.313,-3.83762 3.289,-5.14553 6.6509,-5.50088 3.9051,-0.41269 8.1323,3.27167 15.2718,7.95919 6.3374,4.16119 13.3026,10.68467 17.95,14.56114 3.605,3.00703 6.5692,7.57208 8.2727,7.09445 0.8956,-0.25121 0.9728,-0.99712 0.8439,-2.58864 -0.2099,-2.59528 -3.5929,-7.0581 -5.9993,-11.62095 -2.9096,-5.51716 -7.9201,-13.46797 -10.8065,-20.06203 -2.689,-6.14332 -5.7373,-13.17631 -5.9677,-17.36026 -0.2217,-4.03609 -0.3511,-6.98891 2.0343,-9.04718 2.9175,-2.51753 3.6568,-0.97689 9.8788,-0.73469 4.0191,0.15643 7.0299,2.14058 8.3632,1.28138 1.4097,-0.9085 1.4931,-5.41999 2.6425,-9.41041 1.4299,-4.96414 3.3048,-12.49342 5.3513,-18.12054 1.9806,-5.44527 4.5927,-12.04502 6.8452,-15.72797 1.7254,-2.82106 3.4488,-6.19529 5.1144,-6.23069 1.7912,-0.0381 3.1756,2.45609 5.2115,5.82448 2.5403,4.20276 4.9932,12.64225 7.4022,19.82106 2.375,7.07725 4.1523,15.22998 5.7768,19.34916 1.0876,2.75834 1.8415,5.73693 3.1261,6.29262 1.1966,0.5176 3.4542,-1.40113 5.8994,-1.78097 3.8772,-0.60213 4.8198,-1.94844 7.6562,-0.11472 2.6223,1.69533 2.8875,3.77555 3.3154,7.67116 0.3664,3.33708 -1.0793,8.27376 -2.2877,11.94264 -1.3596,4.12771 -4.5178,10.15994 -7.138,14.88473 -2.5983,4.68482 -6.7194,9.92816 -8.6259,13.59042 -1.4488,2.78281 -3.6241,5.40149 -2.6257,6.30825 1.1272,1.02336 4.0429,-1.76958 7.354,-3.92912 3.8203,-2.49163 8.1948,-6.61745 11.4239,-8.96106 3.2346,-2.34752 8.0175,-6.02747 12.1102,-8.11606 4.0846,-2.08447 7.7451,-4.29473 10.3545,-3.81883 2.4182,0.44098 4.0515,2.15085 5.6848,4.9264 1.5627,2.65565 2.7145,7.2956 2.2651,10.78451 -0.8591,6.67182 -3.5006,10.05393 -11.6348,23.29785 -5.979,9.73493 -15.4175,20.54172 -20.6884,27.87901 -3.9672,5.52238 -9.8288,10.484 -8.3368,11.9918 1.2353,1.24849 4.9418,-3.15967 9.363,-6.36357 5.3415,-3.8708 12.0686,-9.64502 17.0615,-13.16603 4.8196,-3.39886 11.5899,-7.82534 16.5254,-10.61988 4.1212,-2.33347 8.1164,-5.23969 10.0587,-4.97395 1.1874,0.16243 2.4249,1.47682 3.2466,2.91223 1.2557,2.19287 2.2311,7.27141 2.4321,11.97251 0.3061,7.15639 0.2843,9.94855 -1.7927,15.53191 -1.848,4.96747 -8.2105,12.83581 -13.6483,20.06203 -5.8397,7.76026 -14.0854,17.10225 -19.3394,23.29783 -5.2062,6.13906 -13.4533,15.10673 -19.3896,22.38147 -5.0307,6.16511 -11.7053,11.72239 -10.1861,13.26162 1.0807,1.09523 4.7277,-3.41988 8.898,-6.6497 5.5198,-4.27481 13.6208,-11.58304 20.645,-16.56425 7.5282,-5.33862 18.6472,-12.38188 27.1806,-16.94694 7.527,-4.02659 15.5503,-8.41374 19.822,-8.96975 3.7308,-0.48568 5.0045,-0.68744 6.7952,1.13903 1.9032,1.94148 1.9151,6.6413 1.8072,12.27236 -0.1312,6.84942 -0.6048,11.32377 -3.0336,16.25524 -3.8744,7.86627 -14.2161,16.55794 -31.375,35.00301 -14.098,15.15509 -30.2038,30.23651 -37.1916,38.52624 -4.1659,4.94203 -9.7381,9.79147 -8.3677,11.40464 0.8571,1.00898 3.2597,-1.38817 6.2493,-3.17908 4.1958,-2.51361 10.5419,-7.55881 16.1338,-11.24856 6.1728,-4.0732 15.1989,-9.75721 22.0035,-13.72456 6.7195,-3.91773 15.7072,-8.94382 22.0034,-11.96395 5.871,-2.81602 13.5862,-6.73755 19.1849,-8.03235 7.1514,-1.65392 8.1865,-2.68534 10.6783,-0.62045 2.3379,1.93769 1.9244,7.22369 1.843,14.23756 -0.091,7.83722 -0.5669,11.93238 -2.3961,15.64645 -1.6858,3.42304 -7.7829,8.6923 -13.262,13.8617 -7.6235,7.19257 -22.3585,18.89331 -34.8158,29.63279 -12.6206,10.88043 -27.7128,23.39029 -35.9005,31.34852 -5.7217,5.56124 -12.6452,10.52713 -11.3437,12.26844 0.693,0.92728 3.6945,-1.63845 6.7784,-3.35259 4.4506,-2.47361 11.7613,-7.57713 18.3833,-11.40464 7.2971,-4.21762 17.6301,-9.86212 25.2393,-13.55676 8.2825,-4.02138 21.6258,-9.84316 32.4372,-14.14152 9.8179,-3.90319 19.5943,-8.96814 24.2375,-8.72895 3.7285,0.19214 4.4921,0.36246 6.2773,3.02174 1.7161,2.55673 1.2302,8.18178 0.8156,13.53906 -0.4508,5.82445 -1.2475,11.30636 -3.245,14.88474 -2.2454,4.02168 -7.2576,7.65391 -13.3162,12.83721 -5.529,4.73001 -12.8938,9.88694 -17.3998,13.18009 -3.8169,2.78979 -8.5568,6.13556 -11.5663,8.15353 -3.3183,2.22509 -9.4945,5.91277 -14.755,9.40281 -5.9897,3.97366 -14.576,9.89846 -20.8795,14.41264 -6.0507,4.33311 -13.7008,9.61927 -18.1206,13.45737 -3.4287,2.97735 -7.9305,5.76126 -7.5614,7.65187 0.2482,1.27158 0.6136,1.08293 2.414,1.03712 3.2689,-0.0833 10.0985,-5.04555 17.5363,-8.61695 8.3315,-4.00052 18.85,-9.1045 25.7675,-12.08688 6.6816,-2.88062 16.7133,-6.7565 24.3247,-9.58878 7.9888,-2.97259 19.3338,-7.7225 28.095,-9.84204 11.4041,-2.75883 13.725,-4.62811 16.6274,-2.30506 2.2448,1.79692 1.4883,6.2313 1.07,12.86221 -0.4073,6.45518 -1.4037,12.24521 -3.4989,16.4941 -1.8981,3.84947 -5.2889,7.27615 -8.8095,10.30814 -3.8788,3.34009 -11.7963,7.50874 -18.3056,11.43311 -7.5903,4.57595 -19.4547,11.11756 -28.4751,16.56125 -9.0024,5.43277 -20.4067,12.58301 -27.7633,17.37416 -6.8543,4.4641 -16.1254,10.83491 -22.6507,15.3423 -5.5286,3.81899 -11.4248,7.29812 -13.4546,9.47645 -1.0272,1.10218 -2.1401,2.19744 -1.6628,2.75454 1.3738,1.60305 7.702,-3.06738 14.4471,-5.92794 8.9469,-3.79435 22.7627,-10.30373 34.0209,-14.90086 11.1662,-4.55953 25.1295,-9.76449 33.8896,-12.85398 7.4468,-2.62625 16.6941,-5.73645 22.5415,-7.3599 4.9763,-1.38169 11.15,-3.47975 15.1809,-3.49129 4.317,-0.0126 5.8295,-0.19197 7.1255,1.59563 1.4186,1.95697 -0.2519,7.88809 -1.2945,13.44377 -1.0932,5.82543 -2.495,12.36847 -4.3381,15.37328 -1.8495,3.01526 -6.1077,6.36799 -10.6508,9.83194 -4.6575,3.55102 -11.59,7.37569 -16.2683,10.14004 -5.2566,3.10579 -14.3294,8.11908 -22.0036,12.30652 -8.5045,4.64037 -20.8048,11.03746 -29.7696,15.84199 -9.1036,4.87917 -21.8354,11.70448 -30.924,16.69149 -1.7167,0.94201 -15.2676,6.63043 -15.3919,8.58473 z"
       style="stroke-width:1.29432" />
    <path
       id="path9"
       fill="#5d6c27"
       fill-rule="evenodd"
       stroke="#5d6c27"
       stroke-width="3.88298"
       stroke-linecap="round"
       stroke-linejoin="round"
       d="m 1787.6387,1802.3705 c -8.0895,0 -13.2667,0.4835 -13.2667,-7.7647 0,-8.2486 5.1772,-8.7313 11.3252,-9.3605 3.3814,-0.3462 14.5937,-3.0745 24.9158,-6.063 10.3222,-2.9882 25.7179,-7.7641 34.2128,-10.6129 8.4951,-2.8491 20.144,-7.459 25.8865,-10.2441 5.7428,-2.7851 14.8761,-8.4299 20.2962,-12.5435 5.4202,-4.1137 18.2341,-15.9881 28.4752,-26.388 12.9886,-13.1895 24.1009,-22.9523 36.7407,-32.2788 9.9662,-7.3536 22.7852,-18.0655 28.486,-23.8039 7.2624,-7.3108 11.6318,-13.0375 14.5966,-19.1311 2.3271,-4.7834 4.8588,-11.8226 5.626,-15.6427 1.0256,-5.1071 0.9929,-8.8827 -0.1244,-14.2645 -0.8356,-4.0251 -3.3724,-10.0863 -5.6368,-13.4686 -2.2647,-3.3828 -7.6441,-8.8105 -11.9542,-12.0618 -5.4751,-4.1303 -11.521,-7.1225 -20.0622,-9.9304 -8.7176,-2.8657 -16.8168,-4.4286 -28.2287,-5.447 -8.8019,-0.7858 -19.5771,-2.2732 -23.945,-3.3052 -4.3678,-1.032 -13.3563,-3.1352 -19.9743,-4.6737 -6.6179,-1.5385 -15.9371,-4.6803 -20.7091,-6.9815 -4.7719,-2.3011 -12.3294,-6.9447 -16.7938,-10.3189 -4.4645,-3.374 -10.7288,-9.7942 -13.9202,-14.2667 -3.1916,-4.4725 -6.9268,-10.675 -8.3003,-13.7832 -1.3734,-3.1084 -4.0343,-11.476 -5.9128,-18.5948 -1.8787,-7.1188 -5.3662,-17.0204 -7.7498,-22.0034 -2.3836,-4.9832 -7.5961,-12.661 -11.5832,-17.0619 -3.9872,-4.4011 -10.5855,-10.5216 -14.6627,-13.6017 -4.0773,-3.0798 -12.7218,-9.7999 -19.21,-14.9333 -6.4883,-5.1333 -14.9337,-12.7492 -18.7678,-16.9241 -3.8339,-4.1747 -9.7673,-12.2636 -13.1852,-17.9752 -3.4177,-5.7117 -7.6875,-14.6908 -9.4884,-19.9531 -2.6381,-7.709 -3.2968,-12.2096 -3.3883,-23.1589 -0.069,-8.2307 0.703,-17.1632 1.9573,-22.6507 1.1391,-4.9832 4.3869,-14.0108 7.2172,-20.062 2.8304,-6.051 8.77,-15.9524 13.1989,-22.0035 4.4287,-6.051 13.1714,-16.0386 19.4281,-22.1948 6.5462,-6.4411 17.6028,-15.3248 26.0435,-20.925 8.0674,-5.3524 20.2243,-12.0307 27.0157,-14.8411 6.7909,-2.81 17.5661,-6.6082 23.9449,-8.4399 6.3785,-1.8319 17.4219,-4.8665 24.5406,-6.7437 7.1188,-1.877 18.7678,-5.1803 25.8865,-7.3406 7.1188,-2.1601 18.3355,-6.7349 24.926,-10.1659 6.5907,-3.431 16.0046,-8.9118 20.9201,-12.1796 4.9152,-3.2677 11.8345,-8.5466 15.3763,-11.7309 3.5416,-3.1843 9.7127,-10.0632 13.7136,-15.2868 4.0008,-5.2238 8.8027,-12.6548 10.6705,-16.5133 1.868,-3.8588 4.504,-10.2194 5.8584,-14.1348 1.3541,-3.9153 3.3137,-12.3609 4.3544,-18.7677 1.1377,-7.0059 1.8938,-20.6105 1.897,-34.1336 0,-13.6809 0.797,-27.8154 2.027,-36.0999 1.1118,-7.4886 3.6603,-18.1054 5.6629,-23.593 2.003,-5.4877 6.3794,-15.2788 9.726,-21.75838 3.3465,-6.47928 9.0537,-15.74039 12.6829,-20.58006 3.6289,-4.83968 9.9345,-12.5854 14.0124,-17.21252 4.0779,-4.62711 12.4597,-12.78141 18.6262,-18.12052 6.1663,-5.33909 16.853,-13.95999 23.7476,-19.15771 6.8949,-5.19751 17.7782,-13.02397 24.1851,-17.392 6.4068,-4.36804 15.2542,-10.77076 19.6606,-14.22826 4.4066,-3.45762 10.9301,-9.47941 14.4968,-13.38202 3.5666,-3.90238 8.2596,-10.72045 10.4287,-15.15131 2.1696,-4.43051 4.5959,-11.3416 5.3925,-15.35789 1.1707,-5.90283 1.0378,-9.74721 -0.6931,-20.06206 -1.1776,-7.01778 -4.5883,-21.20528 -7.579,-31.52748 -5.1854,-17.89778 -5.4381,-19.57761 -5.4516,-36.2411 -0.012,-15.48625 0.387,-18.72457 3.5104,-28.47514 1.9385,-6.05105 7.7239,-19.44727 12.8567,-29.76948 5.1327,-10.3222 11.2372,-23.48997 13.5651,-29.26166 2.3281,-5.77169 6.3437,-17.42063 8.9235,-25.8865 3.3034,-10.83965 4.9099,-18.9551 5.432,-27.43693 0.4572,-7.42562 0.1068,-15.61516 -0.9107,-21.35636 -0.9089,-5.12152 -3.3004,-13.99789 -5.3149,-19.72534 -2.0144,-5.72729 -5.2515,-13.25625 -7.1936,-16.73095 -1.9419,-3.47471 -7.2144,-10.22235 -11.7167,-14.99503 -5.3713,-5.69379 -11.186,-10.24415 -16.9116,-13.23442 -4.7992,-2.50633 -12.7937,-5.80252 -17.7657,-7.32483 -4.9718,-1.52231 -12.323,-3.11098 -16.336,-3.53049 -4.7481,-0.49626 -10.7284,9.6e-4 -17.1236,1.42374 -5.405,1.20253 -13.2292,3.51958 -17.387,5.14902 -4.1579,1.62945 -11.6049,5.40133 -16.5492,8.38182 -4.9443,2.98065 -12.4842,8.11734 -16.7556,11.41477 -4.2713,3.29759 -11.8485,10.12029 -16.8384,15.16171 -4.9898,5.04142 -17.0847,18.85966 -26.878,30.70734 -9.7931,11.8477 -23.4981,26.99123 -30.4555,33.65246 -6.9573,6.66122 -16.2935,14.54329 -20.7472,17.51588 -4.4535,2.9726 -12.5851,7.27489 -18.0696,9.56066 -5.4847,2.28576 -16.0878,5.67814 -23.5626,7.53859 -12.1891,3.03388 -15.9924,3.37722 -36.8882,3.33045 -12.814,-0.0289 -35.529,-0.31995 -50.4787,-0.64715 -24.5603,-0.53769 -27.8013,-0.35581 -33.6159,1.88681 -3.5395,1.36494 -9.1939,5.06196 -12.5654,8.21577 -3.3714,3.15382 -7.4132,8.3845 -8.9813,11.62379 -2.0386,4.21084 -2.8354,8.19826 -2.7954,13.98827 0.031,4.4543 0.3117,8.59086 0.6243,9.19234 0.3129,0.60151 0.6669,2.70321 0.7867,4.6703 0.1198,1.96707 1.7515,6.62677 3.6262,10.35459 1.8744,3.72783 5.3923,9.50062 7.8175,12.82822 2.4249,3.32761 6.7214,11.05564 9.5477,17.17336 4.6453,10.05455 5.129,12.0842 5.0352,21.13058 -0.058,5.62001 -1.0514,12.84465 -2.2651,16.4791 -1.3121,3.92912 -2.9241,6.47161 -4.1026,6.47161 -1.4639,0 -2.1412,-2.22982 -2.7524,-9.06026 -0.5384,-6.01816 -2.1241,-11.88514 -4.7226,-17.4734 -2.1517,-4.62714 -7.9787,-13.24139 -12.9492,-19.14263 -4.9704,-5.90125 -11.7104,-15.25715 -14.9781,-20.79088 -3.6023,-6.10019 -6.7708,-13.59611 -8.0476,-19.03994 -1.3206,-5.62729 -1.8879,-12.16147 -1.5198,-17.50626 0.4585,-6.66201 1.8122,-11.04757 6.1875,-20.04575 3.0805,-6.33496 8.2087,-14.30616 11.396,-17.7137 3.5266,-3.77018 9.3948,-7.97451 14.9897,-10.73981 5.057,-2.49922 13.9523,-5.48145 19.7675,-6.62708 9.047,-1.7824 16.3296,-1.94497 50.4617,-1.12702 29.045,0.69615 42.5277,0.53151 49.596,-0.60576 5.3393,-0.85904 13.7846,-3.0173 18.7678,-4.79621 4.9832,-1.77891 13.7019,-5.93616 19.3747,-9.23834 5.6819,-3.30753 15.2048,-10.65464 21.2031,-16.35871 5.989,-5.69505 15.1976,-15.59666 20.4633,-22.00351 5.2662,-6.40685 12.8237,-15.43489 16.7947,-20.06205 3.971,-4.62714 11.6717,-13.53811 17.1123,-19.80212 5.4408,-6.26402 14.131,-15.0007 19.3116,-19.41487 5.1806,-4.41416 12.7525,-10.23531 16.8262,-12.93566 4.0738,-2.70036 12.4577,-7.45312 18.6309,-10.56158 6.7641,-3.40598 16.1601,-6.79236 23.6456,-8.52213 10.6689,-2.46541 14.9293,-2.77999 30.1943,-2.22984 15.161,0.54636 19.1996,1.16256 27.4803,4.19204 5.3392,1.95332 14.2186,6.21724 19.7323,9.47516 5.5134,3.2581 14.0776,9.6226 19.031,14.14342 4.9533,4.52081 12.0321,12.71131 15.7308,18.20096 3.6985,5.48966 8.6262,14.0584 10.9502,19.04151 2.3239,4.98313 5.4696,13.71982 6.9902,19.41488 1.5394,5.7652 3.1111,16.66365 3.5463,24.58933 0.4905,8.93702 0.188,17.84863 -0.8129,23.945 -0.8765,5.34068 -3.3062,16.56079 -5.3988,24.93378 -2.0923,8.37299 -6.0085,20.89546 -8.7023,27.82797 -2.6937,6.93252 -9.4966,22.21492 -15.117,33.96087 -5.6207,11.74593 -11.2694,25.12967 -12.5527,29.74151 -1.4105,5.06827 -2.3332,12.75143 -2.3332,19.42387 0,8.03944 0.914,14.20171 3.3645,22.67881 1.8505,6.40178 5.0871,19.50272 7.1924,29.11313 3.157,14.41096 3.7244,19.51511 3.2376,29.12233 -0.3351,6.617 -1.7498,15.28314 -3.2751,20.06207 -1.4767,4.6271 -4.8848,12.15624 -7.5731,16.73122 -2.6883,4.57498 -8.0377,11.74135 -11.8871,15.92519 -3.8495,4.18396 -13.8663,12.96333 -22.2596,19.50982 -8.3933,6.54648 -20.5758,15.68874 -27.0723,20.31596 -6.497,4.62711 -16.5743,12.09953 -22.3948,16.60502 -5.8205,4.50539 -16.0109,13.53327 -22.6456,20.06196 -6.6346,6.52856 -15.1528,16.23845 -18.9291,21.57756 -3.776,5.33905 -8.6836,13.32575 -10.905,17.74815 -2.2217,4.4224 -5.7423,12.3282 -7.824,17.5682 -2.0816,5.2403 -4.447,14.1444 -5.2567,19.7873 -0.8094,5.643 -1.3642,20.1614 -1.2328,32.2634 0.1769,16.2795 -0.3508,25.202 -2.0279,34.2995 -1.2467,6.7628 -3.7195,16.9556 -5.495,22.6507 -1.7757,5.695 -4.8436,13.5581 -6.8183,17.4734 -1.9745,3.9155 -6.6172,11.5974 -10.3175,17.0707 -3.7001,5.4738 -12.0635,15.0966 -18.5852,21.384 -6.5214,6.2875 -15.8674,14.2214 -20.7688,17.6312 -4.9012,3.4098 -13.3465,8.436 -18.7676,11.1694 -5.421,2.7338 -15.3897,7.0061 -22.1526,9.494 -6.7626,2.4882 -22.1976,7.256 -34.2993,10.5953 -12.1021,3.3391 -26.9545,7.6187 -33.0054,9.5102 -6.0511,1.8914 -17.7001,6.7494 -25.8867,10.7959 -9.1211,4.5081 -19.0675,10.7242 -25.6872,16.0543 -5.9415,4.7838 -14.5901,13.1257 -19.2191,18.5381 -4.6292,5.4122 -10.9834,14.2086 -14.121,19.5476 -3.1374,5.3391 -7.2263,14.5152 -9.0865,20.3909 -2.8945,9.1426 -3.3065,12.4092 -2.8568,22.6506 0.445,10.1319 1.1681,13.3397 4.7159,20.9167 3.0508,6.5156 6.7337,11.4495 13.5427,18.1434 5.1437,5.0566 17.591,15.4467 27.6603,23.0887 10.0695,7.6422 21.5497,17.3963 25.5118,21.6756 3.9621,4.2797 9.2433,11.261 11.7362,15.5146 2.4928,4.2534 6.2413,12.0011 8.3299,17.2172 2.0887,5.216 5.0902,14.1045 6.6698,19.7521 1.5799,5.6481 4.046,12.5986 5.4806,15.446 1.4347,2.8476 3.7441,6.7893 5.1321,8.7593 1.3881,1.97 5.826,5.8234 9.8621,8.5633 4.036,2.7394 12.9793,7.0929 19.874,9.6744 6.8945,2.5814 16.5048,5.3008 21.3564,6.0434 4.8512,0.7423 16.524,2.1715 25.9397,3.1754 13.1314,1.4007 20.7255,3.0318 32.6017,7.0027 8.5158,2.847 17.9944,6.7952 21.0636,8.7736 3.0694,1.9784 7.9732,5.5075 10.8977,7.8423 2.9243,2.3351 7.7313,7.6868 10.6818,11.8931 2.9504,4.2065 7.1689,11.6301 9.3744,16.4973 3.0894,6.8179 4.1746,11.3665 4.727,19.8124 0.4251,6.5019 0.076,14.1385 -0.8598,18.7678 -0.8672,4.2926 -3.6016,11.8288 -6.0766,16.7469 -2.4751,4.9182 -7.3898,12.5735 -10.9216,17.012 -3.5319,4.4387 -9.8012,11.1994 -13.9321,15.0237 -4.1307,3.8244 -13.5165,11.2415 -20.8573,16.4825 -7.3406,5.241 -18.5223,13.8366 -24.8481,19.1015 -6.3258,5.2651 -14.3643,13.199 -17.8636,17.6315 -3.499,4.4321 -10.5198,11.7647 -15.6014,16.2946 -5.0817,4.53 -12.5559,10.4351 -16.6097,13.1229 -4.0536,2.6878 -13.3751,7.8867 -20.7142,11.5529 -7.3392,3.6664 -18.4059,8.3592 -24.5922,10.4287 -6.1867,2.0696 -16.533,4.9375 -22.9921,6.3733 -6.4591,1.4358 -18.1083,3.2141 -25.8864,3.9516 -7.7785,0.7376 -17.783,1.3418 -22.2323,1.3422 z" />
    <path
       id="path10"
       fill="#5d6c27"
       fill-rule="evenodd"
       stroke="none"
       d="m 811.20514,1757.0702 c -2.65097,0.7077 -7.74864,-6.7949 -14.06084,-12.5236 -6.84118,-6.209 -14.27408,-13.4341 -18.54453,-17.1497 -3.55513,-3.0938 -8.93009,-7.3758 -12.94325,-10.5921 -4.77211,-3.8242 -12.94485,-10.3624 -20.04293,-15.7286 -7.18134,-5.4292 -16.01363,-11.7527 -21.35634,-15.5488 -5.47174,-3.8876 -14.90553,-10.3679 -22.88059,-15.8614 -8.22619,-5.6664 -18.64161,-12.7112 -25.23933,-17.2753 -6.03973,-4.1783 -14.28481,-9.949 -20.06202,-14.0271 -5.58583,-3.943 -13.132,-9.2031 -18.2182,-12.9833 -6.23037,-4.6302 -17.90527,-13.2046 -27.82799,-21.5566 -12.67386,-10.6677 -29.76457,-25.9333 -44.63193,-40.7712 -13.87354,-13.846 -30.02014,-31.4847 -39.29479,-42.8438 -8.62517,-10.5635 -20.20449,-27.0127 -28.69454,-39.5862 -8.06315,-11.9414 -17.17525,-26.628 -22.34535,-35.5939 -4.82063,-8.3599 -11.6979,-21.35 -16.67518,-31.6017 -5.34913,-11.0175 -12.72356,-27.2667 -17.63265,-39.65 -4.76042,-12.008 -10.08047,-27.4675 -13.12636,-37.5353 -3.17958,-10.5097 -7.45139,-28.0625 -10.91476,-42.5397 -3.71611,-15.534 -8.58991,-37.0677 -11.63771,-52.4202 -3.02325,-15.2285 -6.80175,-36.5068 -9.07298,-51.7732 -2.0408,-13.7171 -4.36747,-29.3939 -4.6775,-38.1825 -0.30725,-8.7089 0.0708,-15.8851 1.26434,-24.5922 0.94754,-6.9118 2.95714,-15.6028 4.73892,-21.0819 1.64489,-5.0579 4.41279,-11.7667 6.98808,-16.1791 2.79039,-4.7806 8.14858,-11.8378 12.97121,-17.1006 5.33176,-5.8184 13.95888,-13.6054 20.93128,-18.9654 7.08877,-5.4495 17.55404,-11.6595 24.81834,-16.0699 7.02114,-4.2626 17.10422,-9.0398 23.48121,-13.3397 6.81053,-4.5923 14.42757,-9.9992 20.2803,-16.0636 5.93665,-6.1514 10.44822,-12.44461 13.84898,-18.82068 2.98507,-5.5968 5.523,-14.73285 7.7696,-21.58101 2.39792,-7.30969 4.9741,-18.2651 7.76728,-26.18033 2.86413,-8.1163 7.29108,-19.29105 11.11355,-27.03081 3.62053,-7.33092 8.7976,-16.28944 12.6439,-21.70961 3.90415,-5.50171 10.86013,-13.66165 16.90215,-19.78635 6.09962,-6.18314 14.36841,-13.44254 20.10942,-17.65635 5.14468,-3.77594 12.28938,-7.9824 17.18189,-10.43531 4.66941,-2.34106 11.49187,-5.07463 16.55834,-6.68418 5.27502,-1.67581 13.21382,-3.61321 19.29687,-4.54971 6.68403,-1.02905 17.06011,-1.90686 25.23016,-1.86977 8.25938,0.0379 18.1,0.93523 24.59216,2.04743 5.68943,0.97461 12.97217,3.01985 17.74237,4.64892 5.05991,1.72818 13.05465,5.11643 19.41487,8.25342 6.78961,3.34875 15.92153,8.43682 22.11674,12.50077 6.32106,4.14652 15.05693,10.84596 21.35636,16.12408 6.33827,5.3105 14.51581,12.96161 19.94883,18.51395 4.64088,4.74299 9.36062,9.92268 11.3063,12.72689 1.76683,2.54638 4.34007,7.80922 6.64273,12.54979 2.33516,4.80741 4.96068,10.34402 6.02885,13.59045 0.90864,2.76158 2.25282,6.86068 2.22429,10.03097 -0.0314,3.48587 0.2325,5.05843 -1.32418,5.5009 -1.806,0.51321 -4.40216,-4.06728 -7.51109,-7.44244 -3.73225,-4.05178 -8.23989,-10.40017 -12.12797,-14.43645 -4.12393,-4.28099 -10.94072,-10.1674 -16.24068,-14.71297 -4.99838,-4.28697 -10.8832,-9.00468 -14.23759,-11.55544 -3.55914,-2.70646 -10.42681,-7.69002 -16.82623,-11.97434 -6.85334,-4.5883 -15.70167,-10.27892 -21.64344,-13.61159 -5.47844,-3.07291 -13.05147,-7.06256 -18.61832,-9.2464 -5.6189,-2.2043 -14.00295,-4.78766 -20.42219,-6.02146 -6.75412,-1.29834 -16.6393,-2.23598 -24.09433,-2.24885 -6.98392,-0.0126 -15.23256,0.80869 -20.06202,1.80282 -4.60328,0.94764 -11.68138,3.32154 -17.16782,5.62103 -5.87518,2.46244 -13.97601,6.38869 -19.41488,10.04199 -5.81229,3.90399 -13.84012,10.93439 -19.72044,16.80002 -5.69868,5.68441 -11.95123,13.12571 -15.34798,17.92472 -3.19426,4.51308 -7.2816,11.87915 -10.22465,17.70298 -3.03112,5.99825 -6.69511,14.36663 -8.89152,20.3433 -2.35568,6.41017 -4.91108,16.95987 -7.59508,25.23935 -2.70976,8.35884 -5.84208,19.06299 -8.9044,25.60526 -2.79525,5.97141 -7.42325,13.50161 -11.03928,18.37841 -3.42155,4.6145 -8.59111,10.2194 -12.40828,13.7226 -4.12567,3.7863 -11.4868,9.263 -17.73661,13.4667 -6.80501,4.577 -17.06297,10.069 -24.34142,14.4189 -6.87358,4.1082 -15.5259,8.8715 -20.59259,12.4175 -4.59895,3.2186 -10.68395,8.0949 -14.71917,11.8698 -4.02533,3.7657 -9.58387,9.1877 -12.74077,13.807 -3.68002,5.3846 -7.12858,11.5108 -9.06225,18.5806 -2.92456,10.6929 -2.74087,15.3162 -2.71788,33.8275 0.0167,13.4862 1.97,30.2511 3.50994,42.3653 1.3489,10.6113 3.88874,23.3278 5.33939,31.064 1.31914,7.0344 3.43719,17.1323 4.99837,24.5922 1.75843,8.4024 4.57264,21.9939 7.10671,33.0053 2.5229,10.963 5.79175,24.264 7.92899,32.3579 2.0126,7.6223 5.22677,19.0724 7.88193,27.8282 2.67713,8.8284 6.19329,20.4905 9.11186,28.168 3.14497,8.2732 8.97259,21.5833 14.2055,32.3582 5.45751,11.2374 13.28735,25.6882 18.82791,35.2538 5.22841,9.0263 12.77016,20.9787 18.23683,29.1223 5.73046,8.5364 14.96018,21.4606 22.53139,31.3661 7.55345,9.8822 17.42813,22.1831 24.18747,29.7694 7.38461,8.2881 20.77809,22.1292 32.70104,33.5019 12.87593,12.282 30.93157,28.2659 43.87172,38.9538 12.7945,10.5675 31.67785,24.4428 45.19124,34.6865 12.97874,9.8384 29.87755,22.2036 40.77125,30.5214 9.20207,7.0266 19.28072,15.3515 25.06956,19.5238 4.17085,3.006 9.05506,5.8289 11.50839,7.6612 1.87584,1.401 4.04318,3.2188 5.63288,4.7028 1.63505,1.5262 3.6891,3.9244 5.46518,5.7 2.16498,2.1642 5.99959,5.7312 9.27443,8.8876 3.16092,3.0468 6.51144,6.2605 8.19957,7.9492 1.17292,1.1734 2.526,2.4831 3.38307,3.4921 1.07076,1.2603 3.02433,3.7731 4.67115,6.2881 2.1055,3.2157 5.46763,8.5082 7.64438,13.3345 2.08336,4.619 4.27094,9.8161 4.2786,12.6196 0.006,2.0674 0.002,3.2421 -1.18524,3.5594 z"
       style="stroke-width:1.29432" />
    <path
       id="path11"
       fill="#5d6c27"
       fill-rule="evenodd"
       stroke="none"
       d="m 1096.8531,707.14921 c -1.5467,0.46783 -1.361,0.40558 -2.4542,-1.29432 -1.5399,-2.39479 -0.523,-9.10641 -0.881,-15.30849 -0.397,-6.87405 -0.6681,-15.65844 -1.2363,-21.35637 -0.5345,-5.35631 -1.6877,-12.79789 -2.5725,-18.12054 -0.8877,-5.33844 -2.2558,-12.79884 -3.4566,-18.12055 -1.2404,-5.49709 -3.4015,-13.45911 -5.0683,-19.41486 -1.7132,-6.12152 -4.188,-14.65976 -6.1898,-20.70921 -2.0407,-6.16637 -5.1606,-14.96989 -7.7642,-21.35636 -2.6628,-6.53183 -6.7827,-15.56475 -9.9632,-21.98377 -3.3677,-6.79756 -8.8076,-16.91658 -13.2595,-24.59217 -4.3828,-7.55675 -10.1907,-16.87473 -14.1081,-22.67044 -4.0026,-5.92209 -11.2988,-14.89358 -16.5868,-22.65068 -5.4963,-8.06314 -12.7809,-18.71935 -16.8049,-26.53366 -3.56062,-6.91497 -7.09426,-15.42177 -8.40638,-20.65754 -1.22014,-4.86873 -2.04616,-12.63214 -1.97324,-18.79377 0.0849,-7.13425 0.98644,-14.27216 2.67306,-20.7253 1.53363,-5.8676 5.02008,-14.04956 8.05394,-19.98889 3.14477,-6.15626 8.35272,-14.44345 12.64222,-20.09743 4.7689,-6.28583 13.443,-15.5695 20.7449,-22.87646 8.4074,-8.41343 22.5642,-20.32905 33.2844,-30.22497 9.962,-9.19633 20.739,-19.10886 26.0158,-24.4135 4.2322,-4.25427 10.4826,-10.98469 15.2025,-16.37086 5.1743,-5.90473 12.8399,-14.77112 18.1872,-22.00352 5.0488,-6.82839 10.2765,-15.21875 13.2185,-20.06204 2.7102,-4.4622 6.6787,-11.67466 9.7542,-17.4734 3.4673,-6.5367 8.5014,-16.6693 12.3746,-24.59216 3.998,-8.17816 9.0079,-19.49592 12.9026,-27.18082 3.8241,-7.54555 9.2688,-18.00836 13.624,-25.23932 4.203,-6.9785 10.022,-15.97841 14.4645,-21.63951 4.4627,-5.687151 11.6536,-13.805913 17.7804,-19.414876 5.9955,-5.488544 14.0452,-11.704372 19.6324,-15.026456 5.0425,-2.998337 12.1955,-6.336372 17.37,-7.748735 7.2703,-1.984456 13.1068,-2.795455 24.5922,-2.798935 11.5757,-0.0035 17.6477,0.621254 25.3589,2.870351 5.6148,1.637674 13.2689,5.660007 18.7678,9.179105 5.5604,3.558453 12.3872,9.255081 16.7064,13.61236 4.3066,4.344336 9.7313,11.292648 13.3622,16.695411 4.151,6.176465 9.9329,16.982325 14.4958,26.006405 4.639,9.17484 9.8618,20.93846 12.9834,28.47515 2.7405,6.61621 5.7412,15.29601 7.8154,20.91555 1.8779,5.08724 4.1614,11.79033 5.8994,16.17905 1.6093,4.06422 3.8512,9.40345 5.5404,12.94325 1.751,3.66937 4.4744,9.39667 7.1794,13.59041 2.8646,4.44103 7.1154,10.5491 11.0438,14.23758 4.1244,3.87222 9.3575,7.76927 14.29,9.70743 6.4934,2.55138 10.7869,2.96975 19.9966,3.06455 8.9903,0.0925 19.5554,-2.59385 31.8047,-4.20656 12.2886,-1.61774 22.2784,-3.88629 30.7947,-4.03526 6.4819,-0.11346 15.1365,0.84622 21.0067,2.00783 5.5917,1.10647 12.8942,3.37437 17.7425,5.39928 4.8626,2.03108 11.63,5.71166 16.435,8.89106 4.8197,3.18919 10.9616,7.95191 14.7344,11.75052 4.0476,4.07541 9.6812,11.36436 13.8211,17.57625 4.0865,6.13224 8.8725,13.6882 10.4807,18.7677 2.4251,7.65866 3.0498,12.75209 3.0054,28.79872 -0.046,16.82337 -0.9873,21.81077 -3.53,32.10771 -1.5841,6.41378 -5.3145,14.77192 -8.0853,20.55831 -2.8331,5.91625 -7.468,14.3611 -11.5891,20.31246 -4.469,6.45376 -12.0647,15.59762 -18.4487,22.22488 -6.5409,6.79062 -16.2512,15.00748 -23.0393,20.62862 -6.4569,5.34697 -15.6783,11.62015 -21.4898,16.43958 -5.4316,4.50439 -12.4597,10.57881 -16.8261,15.10878 -3.9541,4.10181 -8.5517,9.54328 -11.0542,13.25957 -2.5136,3.73287 -5.9896,10.02265 -8.2145,15.38827 -2.3463,5.65842 -4.7744,13.65378 -5.9171,19.41488 -1.1144,5.61922 -1.8176,13.42371 -1.8164,18.90786 0,6.40778 1.2872,17.57418 2.6223,27.18081 1.3682,9.84363 3.4472,21.79181 5.274,28.98217 1.7667,6.95241 5.3425,17.5704 8.5107,25.88649 3.1231,8.19807 7.762,17.88861 10.4173,23.94501 2.1388,4.87852 5.2228,10.11713 5.8748,13.29874 0.5525,2.69594 1.2829,4.8215 -0.067,5.66726 -1.3409,0.84008 -2.4671,-0.40306 -4.8841,-2.29699 -2.9626,-2.32131 -6.8938,-8.3033 -10.7705,-13.28863 -3.9269,-5.04964 -8.3632,-10.89543 -10.6651,-14.29951 -2.1933,-3.24339 -5.6503,-8.8852 -8.3902,-13.73497 -2.8809,-5.09926 -6.5997,-11.8341 -8.6255,-16.56285 -2.1231,-4.95626 -4.9419,-13.07043 -6.7594,-19.77779 -1.9945,-7.35958 -4.3361,-18.23083 -5.3592,-26.4447 -1.2901,-10.35808 -2.1359,-19.264 -1.4711,-30.70088 0.7184,-12.36149 1.9227,-18.67796 4.7363,-28.62509 1.9197,-6.78588 5.4154,-14.83261 8.0145,-19.64459 2.4836,-4.59823 7.0107,-10.99403 10.793,-15.67237 3.9873,-4.93193 10.2747,-11.43325 15.078,-15.96986 5.6112,-5.2996 16.0013,-13.36591 24.4556,-20.58139 8.7591,-7.47538 20.2128,-16.59728 26.8953,-23.2773 5.8519,-5.84959 12.6172,-13.59372 16.3661,-18.89553 3.5778,-5.06038 8.0435,-13.11816 11.0417,-19.41488 2.992,-6.28392 6.6358,-14.70619 8.0647,-20.69054 1.7594,-7.36844 2.3129,-12.62078 2.0178,-20.70921 -0.2229,-6.10727 -1.6739,-13.64397 -3.1431,-18.30305 -1.3928,-4.41682 -4.2,-10.56076 -6.9495,-14.72702 -2.952,-4.47326 -7.7281,-9.93814 -12.1806,-13.72757 -4.6444,-3.95279 -12.1766,-9.24765 -18.6156,-11.80645 -10.5684,-4.19976 -13.5551,-4.93113 -28.5217,-5.52363 -13.6092,-0.53878 -20.3119,1.94639 -32.5105,3.66179 -8.4613,1.18987 -18.969,4.02216 -25.9495,4.3813 -7.4883,0.38519 -14.2609,-0.001 -21.3564,-1.37887 -5.8866,-1.14295 -13.4305,-3.71802 -18.3328,-6.05655 -4.7619,-2.27138 -10.9728,-6.29198 -15.0632,-9.6782 -4.1925,-3.47077 -9.6081,-9.18778 -13.1409,-13.85664 -3.9474,-5.2168 -9.1033,-14.26666 -12.9243,-21.72702 -4.0061,-7.82159 -8.4492,-18.86362 -11.5343,-26.53366 -3.0876,-7.67574 -6.8553,-18.99303 -10.0711,-27.18083 -3.1857,-8.11118 -7.4069,-18.93787 -10.8339,-26.08525 -3.1686,-6.60863 -7.5553,-14.93515 -10.9734,-20.06205 -3.2015,-4.80267 -8.1525,-11.06227 -12.1055,-15.10863 -3.6466,-3.732873 -8.4527,-7.896755 -11.8014,-9.917397 -3.3256,-2.006585 -9.1592,-4.328385 -14.0503,-5.725407 -4.9817,-1.42294 -11.4733,-2.737325 -15.7887,-2.702253 -4.4662,0.0364 -11.5051,1.464338 -17.0754,3.209441 -5.6382,1.766255 -12.3989,4.845965 -16.4398,7.3692 -4.1085,2.565587 -10.0714,7.526106 -14.3906,11.998896 -5.3531,5.5437 -12.6506,14.98112 -18.5921,23.95292 -6.712,10.13513 -15.3686,26.95819 -22.4346,40.12406 -7.2344,13.47982 -15.8276,31.80417 -22.5034,43.72502 -6.3077,11.26373 -14.9057,26.4624 -22.0046,36.24109 -9.3286,12.85019 -18.9013,23.73156 -34.105,39.66445 -12.1573,12.74006 -28.0773,26.80275 -37.5353,35.46154 -8.0432,7.36353 -19.0943,16.21191 -25.7139,22.81041 -6.1083,6.08848 -13.816,14.57554 -18.5633,20.79041 -4.2722,5.59331 -9.0017,12.76519 -11.3418,17.47339 -2.0719,4.16833 -4.3368,10.11918 -5.2367,14.48814 -0.9528,4.62701 -1.5328,11.44877 -1.009,16.9705 0.6462,6.81005 2.0283,11.83788 4.5488,17.92115 2.5591,6.17648 9.5914,16.38114 15.3266,25.74224 6.2066,10.13024 14.9424,23.13259 20.302,32.21449 5.1569,8.73829 12.2936,21.00862 16.6532,30.19891 4.7839,10.0846 11.3868,26.65612 16.1737,40.26769 4.8159,13.6944 9.9476,31.13158 12.8212,42.28329 2.6022,10.09912 5.7922,23.90408 7.1707,33.64613 1.6551,11.69742 2.9063,20.03895 2.2129,31.06378 -0.7334,11.66425 -1.8018,15.7422 -4.7737,23.95133 -1.7112,4.72654 -3.7196,10.13105 -5.86,10.77836 z"
       style="stroke-width:1.29432" />
    <path
       id="path12"
       fill="#6d3c11"
       fill-rule="evenodd"
       stroke="none"
       visibility="hidden"
       d="m 1009.6189,2200.4391 -2.5792,-1.4524 5.6313,-5.7474 11.2064,-7.1618 17.3897,-11.4278 17.2594,-10.8518 10.4726,-5.551 13.5906,-5.5321 14.5413,-5.6103 5.1623,-4.3106 -2.7999,-2.3979 -4.7736,-2.6036 -9.8343,-5.9529 -12.6847,-7.0197 -10.8493,-4.2617 -11.2088,-6.1662 -11.9432,-8.3499 -9.8704,-4.116 -5.2915,-5.2445 -5.1649,-5.8956 -2.8704,-2.9154 8.7701,-0.9957 12.5559,1.7331 17.1047,4.9867 6.3112,3.5844 7.5841,4.2565 7.4611,3.0424 11.6489,5.2582 14.8847,6.0175 11.0017,4.2834 15.5319,6.5976 20.4067,7.92 15.1872,3.0471 15.532,1.2943 15.5319,-0.7687 6.148,-1.2605 26.8573,3.3542 42.7127,4.0195 25.2393,3.6824 13.3196,3.7128 49.1845,1.544 51.7713,1.1784 14.5611,2.701 1.8904,2.7046 -20.633,1.1359 -21.344,1.1508 -4.0263,1.9831 -6.6581,-1.7982 -12.0549,1.2529 -8.7187,-1.2884 -10.0183,1.8099 -14.5849,0.4632 -12.6835,-0.1 -25.57,-1.6995 -29.3821,-0.5147 -23.7521,-0.1272 -20.2549,1.4577 -6.3809,1.1926 -20.9341,-0.7037 -18.0661,2.1936 -15.1108,-0.1215 -15.8331,0.6541 -8.3977,0.5118 -9.9732,0.4878 -10.7916,2.658 -16.5353,2.0555 -16.5024,3.3855 -10.6455,3.8658 -9.3839,3.8822 -11.0018,4.0281 -14.8848,6.0578 -13.5904,4.9094 z m 553.544,-46.1138 -3.1002,0.072 -8.2366,-7.64 -10.9031,-9.6999 -13.12,-5.3338 -32.172,-2.5998 -25.8003,-1.7318 -0.7997,-1.9885 11.5626,-4.6439 14.729,-4.8066 2.7733,0.8403 9.1825,0.7199 18.4588,1.2803 13.9529,4.8204 11.9039,8.2724 9.1108,13.4847 z"
       style="stroke-width:1.29432" />
  </g>
</svg>
